<?xml version="1.0" encoding="UTF-8"?>
<svg id="_레이어_2" data-name="레이어 2" xmlns="http://www.w3.org/2000/svg" viewBox="0 0 14.56 32.72">
  <defs>
    <style>
      .cls-1 {
        fill: #fff;
      }
    </style>
  </defs>
  <g id="_레이어_1-2" data-name="레이어 1">
    <g>
      <path class="cls-1" d="M8.6,16.51c-.68-.79-2.03-.79-2.7,0-1.77,2.06-4.66,5.75-4.66,7.91,0,3.19,2.33,5.34,6.02,5.34s6.02-2.19,6.02-5.34c0-2.16-2.89-5.85-4.66-7.91Z"/>
      <path class="cls-1" d="M5.89,13.25c.68.79,2.03.79,2.7,0,1.77-2.06,4.66-5.75,4.66-7.91,0-3.19-2.33-5.34-6.02-5.34S1.23,2.19,1.23,5.34c0,2.16,2.89,5.85,4.66,7.91Z"/>
      <path class="cls-1" d="M14.56,27.99c.05,3.53-4.47,4.72-7.32,4.73C4.42,32.69-.07,31.48,0,27.99c0,0,.31,0,.31,0,1.2,3.72,7.95,3.62,10.99,2.53,1.24-.47,2.53-1.19,2.8-2.53h.46Z"/>
    </g>
  </g>
</svg>