<?xml version="1.0" encoding="UTF-8"?>
<svg id="_레이어_2" data-name="레이어 2" xmlns="http://www.w3.org/2000/svg" viewBox="0 0 63.97 16.73">
  <defs>
    <style>
      .cls-1 {
        fill: #7a9cb1;
      }
    </style>
  </defs>
  <g id="_레이어_1-2" data-name="레이어 1">
    <g>
      <path class="cls-1" d="M7.29,11.8l-.2.2c-.63.63-1.5,1.04-2.74,1.04-2.15,0-4.35-1.54-4.35-4.68C0,5.65,1.85,3.69,4.52,3.69c1.09,0,1.98.3,2.55.74l.15.13h.11V.37c0-.13.24-.37.37-.37h1.17c.13,0,.37.24.37.37v12.09c0,.13-.24.37-.37.37h-.89c-.15,0-.3-.17-.37-.35l-.28-.67h-.04ZM4.57,11.39c1.26,0,2.09-.61,2.76-1.26v-3.09c-.48-1.09-1.48-1.7-2.65-1.7-1.59,0-2.76,1.17-2.76,3.02s1.15,3.02,2.65,3.02Z"/>
      <path class="cls-1" d="M14.95,5.15l.15-.17c.81-.91,1.83-1.28,2.74-1.28,1.89,0,2.87,1.07,2.87,3.13v.22c0,.13-.24.37-.37.37h-1.17c-.13,0-.37-.24-.37-.37v-.09c0-1.07-.54-1.61-1.35-1.61-1.11,0-2.18.87-2.59,2.05v5.07c0,.13-.24.37-.37.37h-1.17c-.13,0-.37-.24-.37-.37V4.28c0-.13.24-.37.37-.37h.89c.15,0,.28.17.35.37l.3.87h.09Z"/>
      <path class="cls-1" d="M32.9,8.37c0,3.07-2.2,4.68-4.89,4.68s-4.89-1.61-4.89-4.68,2.2-4.68,4.89-4.68,4.89,1.61,4.89,4.68ZM28,5.34c-1.83,0-2.98,1.26-2.98,3.02s1.15,3.02,2.98,3.02,2.98-1.24,2.98-3.02-1.17-3.02-2.98-3.02Z"/>
      <path class="cls-1" d="M38.41,4.84l.2-.2c.61-.61,1.59-.96,2.81-.96,2.61,0,4.22,1.96,4.22,4.68,0,3.2-2.18,4.68-4.46,4.68-1.11,0-1.89-.26-2.55-.76l-.28-.22h-.04v4.3c0,.13-.24.37-.37.37h-1.17c-.13,0-.37-.24-.37-.37V4.28c0-.13.24-.37.37-.37h.89c.15,0,.28.13.37.33l.28.61h.11ZM41.17,5.34c-1.44,0-2.46.87-2.87,2.05v2.98c.67.63,1.48,1.02,2.76,1.02,1.5,0,2.65-1.15,2.65-3.02s-1.09-3.02-2.55-3.02Z"/>
      <path class="cls-1" d="M51.13,4.84l.2-.2c.61-.61,1.59-.96,2.81-.96,2.61,0,4.22,1.96,4.22,4.68,0,3.2-2.18,4.68-4.46,4.68-1.11,0-1.89-.26-2.55-.76l-.28-.22h-.04v4.3c0,.13-.24.37-.37.37h-1.17c-.13,0-.37-.24-.37-.37V4.28c0-.13.24-.37.37-.37h.89c.15,0,.28.13.37.33l.28.61h.11ZM53.9,5.34c-1.44,0-2.46.87-2.87,2.05v2.98c.67.63,1.48,1.02,2.76,1.02,1.5,0,2.65-1.15,2.65-3.02s-1.09-3.02-2.55-3.02Z"/>
      <path class="cls-1" d="M62.8.32c.65,0,1.17.52,1.17,1.17s-.52,1.17-1.17,1.17-1.17-.52-1.17-1.17.52-1.17,1.17-1.17ZM63.75,12.46c0,.13-.24.37-.37.37h-1.17c-.13,0-.37-.24-.37-.37v-7.41c0-.13.24-.37.37-.37h1.17c.13,0,.37.24.37.37v7.41Z"/>
    </g>
  </g>
</svg>