<?xml version="1.0" encoding="UTF-8"?>
<svg id="_레이어_2" data-name="레이어 2" xmlns="http://www.w3.org/2000/svg" viewBox="0 0 81.46 22.85">
  <defs>
    <style>
      .cls-1 {
        fill: #fff;
      }
    </style>
  </defs>
  <g id="_레이어_1-2" data-name="레이어 1">
    <g>
      <g>
        <path class="cls-1" d="M24.78,14.55l-.2.2c-.63.63-1.5,1.04-2.74,1.04-2.15,0-4.35-1.54-4.35-4.68,0-2.72,1.85-4.68,4.52-4.68,1.09,0,1.98.3,2.55.74l.15.13h.11V3.12c0-.13.24-.37.37-.37h1.17c.13,0,.37.24.37.37v12.09c0,.13-.24.37-.37.37h-.89c-.15,0-.3-.17-.37-.35l-.28-.67h-.04ZM22.06,14.14c1.26,0,2.09-.61,2.76-1.26v-3.09c-.48-1.09-1.48-1.7-2.65-1.7-1.59,0-2.76,1.17-2.76,3.02s1.15,3.02,2.65,3.02Z"/>
        <path class="cls-1" d="M32.44,7.89l.15-.17c.81-.91,1.83-1.28,2.74-1.28,1.89,0,2.87,1.07,2.87,3.13v.22c0,.13-.24.37-.37.37h-1.17c-.13,0-.37-.24-.37-.37v-.09c0-1.07-.54-1.61-1.35-1.61-1.11,0-2.18.87-2.59,2.05v5.07c0,.13-.24.37-.37.37h-1.17c-.13,0-.37-.24-.37-.37V7.02c0-.13.24-.37.37-.37h.89c.15,0,.28.17.35.37l.3.87h.09Z"/>
        <path class="cls-1" d="M50.39,11.11c0,3.07-2.2,4.68-4.89,4.68s-4.89-1.61-4.89-4.68,2.2-4.68,4.89-4.68,4.89,1.61,4.89,4.68ZM45.49,8.09c-1.83,0-2.98,1.26-2.98,3.02s1.15,3.02,2.98,3.02,2.98-1.24,2.98-3.02-1.17-3.02-2.98-3.02Z"/>
        <path class="cls-1" d="M55.89,7.59l.2-.2c.61-.61,1.59-.96,2.81-.96,2.61,0,4.22,1.96,4.22,4.68,0,3.2-2.18,4.68-4.46,4.68-1.11,0-1.89-.26-2.55-.76l-.28-.22h-.04v4.3c0,.13-.24.37-.37.37h-1.17c-.13,0-.37-.24-.37-.37V7.02c0-.13.24-.37.37-.37h.89c.15,0,.28.13.37.33l.28.61h.11ZM58.66,8.09c-1.44,0-2.46.87-2.87,2.05v2.98c.67.63,1.48,1.02,2.76,1.02,1.5,0,2.65-1.15,2.65-3.02s-1.09-3.02-2.55-3.02Z"/>
        <path class="cls-1" d="M68.62,7.59l.2-.2c.61-.61,1.59-.96,2.81-.96,2.61,0,4.22,1.96,4.22,4.68,0,3.2-2.18,4.68-4.46,4.68-1.11,0-1.89-.26-2.55-.76l-.28-.22h-.04v4.3c0,.13-.24.37-.37.37h-1.17c-.13,0-.37-.24-.37-.37V7.02c0-.13.24-.37.37-.37h.89c.15,0,.28.13.37.33l.28.61h.11ZM71.38,8.09c-1.44,0-2.46.87-2.87,2.05v2.98c.67.63,1.48,1.02,2.76,1.02,1.5,0,2.65-1.15,2.65-3.02s-1.09-3.02-2.55-3.02Z"/>
        <path class="cls-1" d="M80.28,3.07c.65,0,1.17.52,1.17,1.17s-.52,1.17-1.17,1.17-1.17-.52-1.17-1.17.52-1.17,1.17-1.17ZM81.24,15.2c0,.13-.24.37-.37.37h-1.17c-.13,0-.37-.24-.37-.37v-7.41c0-.13.24-.37.37-.37h1.17c.13,0,.37.24.37.37v7.41Z"/>
      </g>
      <g>
        <path class="cls-1" d="M6,11.53c-.47-.55-1.41-.55-1.89,0-1.24,1.44-3.26,4.02-3.26,5.52,0,2.23,1.62,3.73,4.2,3.73s4.2-1.53,4.2-3.73c0-1.51-2.02-4.08-3.26-5.52Z"/>
        <path class="cls-1" d="M4.11,9.25c.47.55,1.41.55,1.89,0,1.24-1.44,3.26-4.02,3.26-5.52,0-2.23-1.62-3.73-4.2-3.73S.86,1.53.86,3.73c0,1.51,2.02,4.08,3.26,5.52Z"/>
        <path class="cls-1" d="M10.17,19.54c.03,2.47-3.12,3.29-5.11,3.3C3.09,22.82-.05,21.98,0,19.54c0,0,.22,0,.22,0,.84,2.6,5.55,2.52,7.67,1.77.86-.33,1.77-.83,1.96-1.77h.32Z"/>
      </g>
    </g>
  </g>
</svg>